<svg version="1.1" viewBox="-1 -1 351 332" xmlns="http://www.w3.org/2000/svg" xmlns:xlink="http://www.w3.org/1999/xlink">
  <!-- Exported by Scratch - http://scratch.mit.edu/ -->
  <g id="ID0.635741425678134" transform="matrix(1, 0, 0, 1, -55, -16)">
    <g id="ID0.4860364100895822" transform="matrix(1, 0, 0, 1, 55, 16)">
      <g id="ID0.7177461087703705">
        <g id="ID0.9925115103833377">
          <g id="ID0.737580387853086">
            <path id="ID0.08681072387844324" fill="#000000" stroke="none" stroke-linecap="round" d="M 88.400 170 C 94.723 169.884 103.059 168.300 107.150 173 C 110.386 176.719 103.193 182.663 104.150 187.500 C 105.295 193.295 112.425 197.212 113.150 203.250 C 113.654 208.294 110.344 213.309 107.483 217.561 C 105.858 219.975 102.970 222.089 99.900 222.750 C 95.956 223.482 91.743 221.740 87.650 221.500 C 83.849 221.275 80.043 222.464 76.400 221.750 C 73.922 221.097 71.200 219.689 70.017 217.561 C 67.445 212.925 64.875 207.542 65.650 202.250 C 66.718 195.765 73.406 191.204 75.150 184.750 C 76.137 181.102 71.003 176.331 73.650 173.500 C 76.930 169.734 83.178 170.097 88.400 170 Z " transform="matrix(-1, 0, 0, 1, 415.5, -10.5)"/>
            <path id="ID0.08681072387844324" fill="#CCCCCC" stroke="none" stroke-linecap="round" d="M 88.400 170 C 94.723 169.884 103.059 168.300 107.150 173 C 110.386 176.719 103.418 182.624 104.150 187.500 C 104.825 191.999 108.939 194.862 111.050 198.700 C 112.190 200.771 114.113 202.823 113.500 205.050 C 113.134 207.378 108.676 209.421 108.600 210.100 C 108.525 210.771 114.106 207.101 113.500 208.500 C 111.504 213.100 108.431 219.360 103.400 221.800 C 98.754 224.226 92.898 221.568 87.650 221.500 C 83.903 221.451 80.043 222.464 76.400 221.750 C 73.922 221.097 71.200 219.689 70.017 217.561 C 67.445 212.925 64.875 207.542 65.650 202.250 C 66.718 195.765 73.406 191.204 75.150 184.750 C 76.137 181.102 71.003 176.331 73.650 173.500 C 76.930 169.734 83.178 170.097 88.400 170 Z " transform="matrix(-0.9129979014396667, 0, 0, 0.942299485206604, 408, 0.5)"/>
            <path id="ID0.08681072387844324" fill="#FFFFFF" stroke="none" stroke-linecap="round" d="M 88.400 170 C 94.723 169.884 103.059 168.300 107.150 173 C 110.386 176.719 103.193 182.663 104.150 187.500 C 105.295 193.295 112.425 197.212 113.150 203.250 C 113.654 208.294 110.344 213.309 107.483 217.561 C 105.858 219.975 102.970 222.089 99.900 222.750 C 95.956 223.482 91.743 221.740 87.650 221.500 C 83.849 221.275 80.043 222.464 76.400 221.750 C 73.922 221.097 71.200 219.689 70.017 217.561 C 67.445 212.925 64.875 207.542 65.650 202.250 C 66.718 195.765 73.406 191.204 75.150 184.750 C 76.137 181.102 71.003 176.331 73.650 173.500 C 76.930 169.734 83.178 170.097 88.400 170 Z " transform="matrix(-0.8396226763725281, 0, 0, 0.9098436832427979, 402.8, 6.15)"/>
            <path id="ID0.1874967459589243" fill="#000000" stroke="none" stroke-linecap="round" d="M 82.100 182.900 C 83.128 183.032 84.253 183.022 85.200 182.600 C 86.317 182.103 87.459 179.894 87.900 180.250 C 88.411 180.617 88.202 183.299 87.162 184.091 C 85.816 185.114 84.091 184.750 82.125 184.750 C 80.159 184.750 78.345 185.222 77.088 184.091 C 76.114 183.214 76.849 180.835 77.150 180.100 C 77.258 179.748 77.398 181.497 77.950 181.800 C 79.206 182.478 80.660 182.714 82.100 182.900 Z " transform="matrix(-1, 0, 0, 1, 410.75, -18.25)"/>
          </g>
          <g id="ID0.5564725492149591">
            <path id="ID0.8438295354135334" fill="#000000" stroke="none" stroke-linecap="round" d="M 87.700 216.750 C 89.761 216.797 92.448 216.967 93.700 218.650 C 94.921 220.288 94.024 222.853 93.500 224.850 C 92.959 226.906 91.786 228.669 90.850 230.500 C 90.117 231.723 89.840 234.409 88.500 234 C 85.905 233.205 84.415 230.205 83 227.850 C 81.717 225.712 80.803 223.174 80.700 220.650 C 80.598 219.633 81.500 218.669 82.438 218.138 C 84.017 217.250 85.889 216.710 87.700 216.750 Z " transform="matrix(-1, 0, 0, 1, 423, -17.25)"/>
            <path id="ID0.8438295354135334" fill="#CCCCCC" stroke="none" stroke-linecap="round" d="M 87.700 216.750 C 89.761 216.797 92.448 216.967 93.700 218.650 C 94.921 220.288 94.024 222.853 93.500 224.850 C 92.959 226.906 91.786 228.669 90.850 230.500 C 90.117 231.723 89.840 234.409 88.500 234 C 85.905 233.205 84.415 230.205 83 227.850 C 81.717 225.712 80.803 223.174 80.700 220.650 C 80.598 219.633 81.500 218.669 82.438 218.138 C 84.017 217.250 85.889 216.710 87.700 216.750 Z " transform="matrix(-1, 0, 0, 1, 423.1, -18.75)"/>
            <path id="ID0.8438295354135334" fill="#FFFFFF" stroke="none" stroke-linecap="round" d="M 87.700 216.750 C 90.084 216.726 93.286 216.259 94.650 218.250 C 95.976 220.017 94.189 222.641 93.500 224.850 C 92.882 226.834 91.659 228.587 90.850 230.500 C 90.237 231.947 90.556 235.440 89.200 235 C 86.631 234.115 84.612 230.546 83 227.850 C 81.708 225.690 80.803 223.174 80.700 220.650 C 80.598 219.633 81.500 218.669 82.438 218.138 C 84.017 217.250 85.888 216.768 87.700 216.750 Z " transform="matrix(-0.9007353186607361, 0, 0, 0.9632353186607361, 415.25, -11.05)"/>
          </g>
          <g id="ID0.5564725492149591">
            <path id="ID0.8438295354135334" fill="#000000" stroke="none" stroke-linecap="round" d="M 87.700 216.750 C 89.761 216.797 92.448 216.967 93.700 218.650 C 94.921 220.288 94.024 222.853 93.500 224.850 C 92.959 226.906 91.786 228.669 90.850 230.500 C 90.117 231.723 89.840 234.409 88.500 234 C 85.905 233.205 84.415 230.205 83 227.850 C 81.717 225.712 80.803 223.174 80.700 220.650 C 80.598 219.633 81.500 218.669 82.438 218.138 C 84.017 217.250 85.889 216.710 87.700 216.750 Z " transform="matrix(-1, 0, 0, 1, 408.15, -16.55)"/>
            <path id="ID0.8438295354135334" fill="#CCCCCC" stroke="none" stroke-linecap="round" d="M 87.700 216.750 C 89.761 216.797 92.448 216.967 93.700 218.650 C 94.921 220.288 94.024 222.853 93.500 224.850 C 92.959 226.906 91.786 228.669 90.850 230.500 C 90.117 231.723 89.840 234.409 88.500 234 C 85.905 233.205 84.415 230.205 83 227.850 C 81.717 225.712 80.803 223.174 80.700 220.650 C 80.598 219.633 81.500 218.669 82.438 218.138 C 84.017 217.250 85.889 216.710 87.700 216.750 Z " transform="matrix(-1, 0, 0, 1, 408.25, -18.05)"/>
            <path id="ID0.8438295354135334" fill="#FFFFFF" stroke="none" stroke-linecap="round" d="M 87.700 216.750 C 90.084 216.726 93.286 216.259 94.650 218.250 C 95.976 220.017 94.189 222.641 93.500 224.850 C 92.882 226.834 91.659 228.587 90.850 230.500 C 90.237 231.947 90.556 235.440 89.200 235 C 86.631 234.115 84.612 230.546 83 227.850 C 81.708 225.690 80.803 223.174 80.700 220.650 C 80.598 219.633 81.500 218.669 82.438 218.138 C 84.017 217.250 85.888 216.768 87.700 216.750 Z " transform="matrix(-0.9007353186607361, 0, 0, 0.9632353186607361, 400.4, -10.4)"/>
          </g>
        </g>
        <g id="ID0.561114891897887">
          <path id="ID0.08446970768272877" fill="#000000" stroke="none" stroke-linecap="round" d="M 116.850 136.650 C 119.272 135.951 115.899 140.321 116.179 142.105 C 116.987 147.243 118.999 152.097 120 157.250 C 120.609 160.827 121.266 164.582 121 168.250 C 120.932 169.178 120.211 169.864 119.200 170.100 C 115.014 171.043 110.573 170.608 106.450 171.550 C 101.496 172.681 95.894 173.372 91.950 176.300 C 89.262 178.298 90.297 183.370 87.450 185.300 C 85.175 186.842 80.526 187.478 79.200 185.050 C 76.764 179.887 77.238 173.338 78.750 167.750 C 80.561 161.122 83.930 154.343 89.250 150 C 97.133 143.565 107.038 139.538 116.850 136.650 Z " transform="matrix(-1, 0, 0, 1, 412, -21)"/>
          <path id="ID0.08446970768272877" fill="#AA3578" stroke="none" stroke-linecap="round" d="M 116.250 136.500 C 117.671 135.233 115.882 140.263 116.179 142.105 C 116.999 147.155 118.999 152.097 120 157.250 C 120.609 160.827 121.600 164.625 121 168.250 C 120.794 169.449 119.358 169.878 118.250 170.250 C 113.547 171.416 108.472 171.297 104 172.750 C 99.040 174.363 93.635 175.775 89.750 179.250 C 86.952 181.759 88.284 187.418 85.450 190.050 C 83.812 191.560 78.647 191.491 78.450 189.150 C 77.878 182.371 80.371 175.157 84.200 169.550 C 88.558 163.181 97.527 161.156 103.200 155.750 C 108.345 150.001 110.565 141.567 116.250 136.500 Z " transform="matrix(-1, 0, 0, 0.8162475824356079, 410.5, 8.15)"/>
          <path id="ID0.08446970768272877" fill="#E84067" stroke="none" stroke-linecap="round" d="M 117 137.550 C 119.319 136.821 119.400 141.190 120 143.300 C 121.858 149.833 123.588 156.481 124.250 163.250 C 124.435 165.129 124.101 167.299 123 168.750 C 121.820 169.962 119.732 169.914 118.250 170.250 C 113.544 171.292 108.472 171.297 104 172.750 C 99.040 174.363 93.233 175.368 89.750 179.250 C 86.112 183.306 87.720 190.179 84.500 194.450 C 83.429 195.859 80.083 194.888 79.750 193.250 C 78.420 186.698 78.180 179.918 80 173.650 C 82.244 165.914 85.648 157.634 91.500 151.900 C 98.453 145.088 107.659 140.340 117 137.550 Z " transform="matrix(-1, 0, 0, 0.8162475824356079, 411.55, 4.75)"/>
        </g>
      </g>
      <g id="ID0.21826385613530874">
        <path id="ID0.8378408495336771" fill="#000000" stroke="none" stroke-linecap="round" d="M 149 139.250 C 160.856 138.895 173.678 137.344 184.255 142.107 C 190.242 144.804 193.135 152.741 194 159.250 C 194.645 164.109 191.750 169.413 188.250 173 C 186.122 175.038 182.304 173.818 179.250 174 C 172.839 174.382 166.375 174.154 160 174.500 C 154.325 174.808 148.634 175.647 143 176 C 138.970 176.147 134.678 177.272 131 176 C 129.745 175.563 131.563 173.354 131.250 172 C 130.256 167.688 127.710 163.639 127.500 159.250 C 127.280 154.629 128.736 150.062 129.500 145.500 C 129.694 144.348 128.137 144.255 129.750 143.750 C 136.201 141.730 142.504 139.449 149 139.250 Z " transform="matrix(-1, 0, 0, 1, 427.75, -27.25)"/>
        <path id="ID0.8378408495336771" fill="#AA3578" stroke="none" stroke-linecap="round" d="M 161.250 138.500 C 168.985 137.955 177.609 137.900 184.255 142.107 C 189.807 145.622 192.489 152.860 194 159.250 C 195.109 163.947 194.190 169.602 191.500 173.800 C 190.310 175.730 186.908 174.178 184.500 174.250 C 176.345 174.493 168.147 174.059 160 174.500 C 152.921 174.884 146.067 176.043 139.100 176.700 C 136.105 176.982 132.401 178.738 130 177.400 C 128.651 176.588 131.273 174.618 131.600 172.400 C 132.906 163.526 128.823 152.396 134.750 145.650 C 140.783 138.784 151.947 139.154 161.250 138.500 Z " transform="matrix(-1, 0, 0, 0.7103274464607239, 429.5, 21.5)"/>
        <path id="ID0.8378408495336771" fill="#E84067" stroke="none" stroke-linecap="round" d="M 181.250 139.500 C 184.014 139.694 186.981 139.459 189.400 140.750 C 191.186 141.541 192.493 143.042 192.950 145.300 C 194.776 154.333 198.755 163.984 196.300 172.850 C 195.071 176.607 188.317 174.071 184.500 174.250 C 176.350 174.632 168.153 174.204 160 174.500 C 151.596 174.805 142.937 175.777 134.400 176.250 C 132.276 176.362 129.868 177.847 129.300 176.250 C 127.079 170.976 127.466 164.938 127.500 159.250 C 127.528 154.624 125.611 148.003 129.500 145.500 C 138.171 139.939 149.096 139.507 159.100 138.300 C 166.507 137.488 173.885 138.984 181.250 139.500 Z " transform="matrix(-0.9814126491546631, 0, 0, 0.8173803687095642, 426.4, -0.25)"/>
      </g>
    </g>
    <g id="ID0.3581129349768162" transform="matrix(1, 0, 0, 1, 55, 16)">
      <g id="ID0.5408020317554474">
        <g id="ID0.6583024775609374">
          <g id="ID0.7230383609421551">
            <path id="ID0.4434986845590174" fill="#000000" stroke="none" stroke-linecap="round" d="M 320.350 339.900 C 328.010 339.962 335.752 339.200 343.350 340.400 C 345.186 340.716 344.114 342.644 343.700 343.650 C 343.340 344.511 343.416 344.997 341.600 345.150 C 334.337 345.763 327.148 345.675 320 345.650 C 312.690 345.625 305.334 345.714 298.200 345 C 296.418 344.822 297.172 344.117 297 343.400 C 296.752 342.292 295.458 340.283 297.350 340 C 304.927 338.870 312.794 339.839 320.350 339.900 Z " transform="matrix(1, 0, 0, 1, -82.75, -15.5)"/>
            <path id="ID0.4434986845590174" fill="#8097B2" stroke="none" stroke-linecap="round" d="M 320.350 339.900 C 328.010 339.962 335.752 339.200 343.350 340.400 C 345.186 340.716 344.114 342.644 343.700 343.650 C 343.340 344.511 343.416 344.997 341.600 345.150 C 334.337 345.763 327.148 345.675 320 345.650 C 312.690 345.625 305.334 345.714 298.200 345 C 296.418 344.822 297.172 344.117 297 343.400 C 296.752 342.292 295.458 340.283 297.350 340 C 304.927 338.870 312.794 339.839 320.350 339.900 Z " transform="matrix(0.9729729890823364, 0, 0, 0.8064516186714172, -74, 50.7)"/>
          </g>
          <g id="ID0.6856644409708679">
            <path id="ID0.7449960573576391" fill="#000000" stroke="none" stroke-linecap="round" d="M 292.625 310 C 296.843 309.910 300.955 310.883 305.050 311.300 C 309.421 311.765 314.864 309.748 318.050 312.650 C 322.337 316.557 324.315 323.059 324.450 328.850 C 324.424 333.292 321.086 337.290 318.350 340.750 C 317.369 341.988 315.629 341.844 313.850 342 C 306.126 342.622 298.516 342.957 290.850 343 C 283.540 343.041 275.824 342.826 268.350 342.250 C 266.482 342.106 265.325 341.935 264.750 340.700 C 262.943 337.108 261.619 333.032 261.750 328.875 C 261.902 324.080 262.985 318.941 265.600 315 C 266.965 312.753 270.168 312.407 272.600 312 C 279.217 310.910 285.925 310.144 292.625 310 Z " transform="matrix(0.9028339982032776, 0, 0, 0.7473291754722595, -25.9, 70.35)"/>
            <path id="ID0.7449960573576391" fill="#E84067" stroke="none" stroke-linecap="round" d="M 306.450 311.700 C 310.640 311.867 315.842 309.824 319 312.750 C 323.322 316.758 325.171 323.469 325.150 329.350 C 324.932 333.750 321.190 337.445 318.350 340.750 C 317.330 341.937 315.730 341.889 313.850 342 C 306.327 342.445 298.746 342.486 291.200 342.600 C 283.592 342.570 275.959 342.604 268.350 342.250 C 266.448 342.161 264.962 342.356 264.300 341.100 C 262.505 337.378 261.568 333.088 261.750 328.875 C 261.958 324.075 263.108 319.097 265.600 315 C 266.777 313.065 269.732 312.848 271.950 312.200 C 274.159 311.555 276.535 311.141 278.900 311.100 C 288.056 310.974 297.241 311.334 306.450 311.700 Z " transform="matrix(0.8542510271072388, 0, 0, 0.6933716535568237, -11.75, 87.9)"/>
            <path id="ID0.13382242107763886" fill="#FFE46D" stroke="none" stroke-linecap="round" d="M 308.250 319.650 L 313 319 L 317.500 319.900 L 327 319.150 L 333.750 320.150 L 327.600 346.150 L 304.850 345.850 L 308.250 319.650 Z " transform="matrix(1, 0, 0, 0.8277592062950134, -82.75, 39.1)"/>
          </g>
          <path id="ID0.14804799063131213" fill="#000000" stroke="none" stroke-linecap="round" d="M 311.700 318.500 L 338 318.500 L 334.100 326.850 L 308 325.600 L 311.700 318.500 Z " transform="matrix(0.875, 0, 0, 1, -40.55, -15.5)"/>
          <path id="ID0.14804799063131213" fill="#8097B2" stroke="none" stroke-linecap="round" d="M 311.700 318.500 L 337.650 319.750 L 334.100 326.850 L 308 325.600 L 311.700 318.500 Z " transform="matrix(0.8195833563804626, 0, 0, 0.9366666674613953, -22.5, 4.25)"/>
          <g id="ID0.8617572472430766">
            <path id="ID0.12417209101840854" fill="#000000" stroke="none" d="M 315.925 320.350 C 316.856 320.350 317.700 320.566 318.311 320.914 C 318.922 321.263 319.300 321.744 319.300 322.275 C 319.300 322.806 318.922 323.287 318.311 323.636 C 317.700 323.984 316.856 324.200 315.925 324.200 C 314.994 324.200 314.150 323.984 313.539 323.636 C 312.928 323.287 312.550 322.806 312.550 322.275 C 312.550 321.744 312.928 321.263 313.539 320.914 C 314.150 320.566 314.994 320.350 315.925 320.350 Z " transform="matrix(0.875, 0, 0, 1, -40.6, -15.5)"/>
            <path id="ID0.6995338806882501" fill="#8097B2" stroke="none" d="M 315.900 320.800 C 316.672 320.800 317.372 320.957 317.879 321.210 C 318.386 321.464 318.700 321.814 318.700 322.200 C 318.700 322.586 318.386 322.936 317.879 323.190 C 317.372 323.443 316.672 323.600 315.900 323.600 C 315.128 323.600 314.428 323.443 313.921 323.190 C 313.414 322.936 313.100 322.586 313.100 322.200 C 313.100 321.814 313.414 321.464 313.921 321.210 C 314.428 320.957 315.128 320.800 315.900 320.800 Z " transform="matrix(0.875, 0, 0, 1, -40.6, -15.5)"/>
          </g>
          <g id="ID0.8617572472430766">
            <path id="ID0.12417209101840854" fill="#000000" stroke="none" d="M 315.925 320.350 C 316.856 320.350 317.700 320.566 318.311 320.914 C 318.922 321.263 319.300 321.744 319.300 322.275 C 319.300 322.806 318.922 323.287 318.311 323.636 C 317.700 323.984 316.856 324.200 315.925 324.200 C 314.994 324.200 314.150 323.984 313.539 323.636 C 312.928 323.287 312.550 322.806 312.550 322.275 C 312.550 321.744 312.928 321.263 313.539 320.914 C 314.150 320.566 314.994 320.350 315.925 320.350 Z " transform="matrix(0.875, 0, 0, 1, -30.75, -14.7)"/>
            <path id="ID0.6995338806882501" fill="#8097B2" stroke="none" d="M 315.900 320.800 C 316.672 320.800 317.372 320.957 317.879 321.210 C 318.386 321.464 318.700 321.814 318.700 322.200 C 318.700 322.586 318.386 322.936 317.879 323.190 C 317.372 323.443 316.672 323.600 315.900 323.600 C 315.128 323.600 314.428 323.443 313.921 323.190 C 313.414 322.936 313.100 322.586 313.100 322.200 C 313.100 321.814 313.414 321.464 313.921 321.210 C 314.428 320.957 315.128 320.800 315.900 320.800 Z " transform="matrix(0.875, 0, 0, 1, -30.75, -14.7)"/>
          </g>
          <g id="ID0.8617572472430766">
            <path id="ID0.12417209101840854" fill="#000000" stroke="none" d="M 315.925 320.350 C 316.856 320.350 317.700 320.566 318.311 320.914 C 318.922 321.263 319.300 321.744 319.300 322.275 C 319.300 322.806 318.922 323.287 318.311 323.636 C 317.700 323.984 316.856 324.200 315.925 324.200 C 314.994 324.200 314.150 323.984 313.539 323.636 C 312.928 323.287 312.550 322.806 312.550 322.275 C 312.550 321.744 312.928 321.263 313.539 320.914 C 314.150 320.566 314.994 320.350 315.925 320.350 Z " transform="matrix(0.875, 0, 0, 0.8701298832893372, -29.9, 23)"/>
            <path id="ID0.6995338806882501" fill="#8097B2" stroke="none" d="M 315.900 320.800 C 316.672 320.800 317.372 320.957 317.879 321.210 C 318.386 321.464 318.700 321.814 318.700 322.200 C 318.700 322.586 318.386 322.936 317.879 323.190 C 317.372 323.443 316.672 323.600 315.900 323.600 C 315.128 323.600 314.428 323.443 313.921 323.190 C 313.414 322.936 313.100 322.586 313.100 322.200 C 313.100 321.814 313.414 321.464 313.921 321.210 C 314.428 320.957 315.128 320.800 315.900 320.800 Z " transform="matrix(0.875, 0, 0, 0.8701298832893372, -29.9, 23)"/>
          </g>
          <g id="ID0.8617572472430766">
            <path id="ID0.12417209101840854" fill="#000000" stroke="none" d="M 315.925 320.350 C 316.856 320.350 317.700 320.566 318.311 320.914 C 318.922 321.263 319.300 321.744 319.300 322.275 C 319.300 322.806 318.922 323.287 318.311 323.636 C 317.700 323.984 316.856 324.200 315.925 324.200 C 314.994 324.200 314.150 323.984 313.539 323.636 C 312.928 323.287 312.550 322.806 312.550 322.275 C 312.550 321.744 312.928 321.263 313.539 320.914 C 314.150 320.566 314.994 320.350 315.925 320.350 Z " transform="matrix(0.875, 0, 0, 0.8701298832893372, -39.1, 22.45)"/>
            <path id="ID0.6995338806882501" fill="#8097B2" stroke="none" d="M 315.900 320.800 C 316.672 320.800 317.372 320.957 317.879 321.210 C 318.386 321.464 318.700 321.814 318.700 322.200 C 318.700 322.586 318.386 322.936 317.879 323.190 C 317.372 323.443 316.672 323.600 315.900 323.600 C 315.128 323.600 314.428 323.443 313.921 323.190 C 313.414 322.936 313.100 322.586 313.100 322.200 C 313.100 321.814 313.414 321.464 313.921 321.210 C 314.428 320.957 315.128 320.800 315.900 320.800 Z " transform="matrix(0.875, 0, 0, 0.8701298832893372, -39.1, 22.45)"/>
          </g>
        </g>
        <g id="ID0.11076520662754774">
          <g id="ID0.9285071063786745">
            <path id="ID0.8126780902966857" fill="#000000" stroke="none" d="M 310.550 299.850 C 313.792 299.850 316.729 300.466 318.856 301.462 C 320.983 302.458 322.300 303.833 322.300 305.350 C 322.300 306.867 320.983 308.242 318.856 309.238 C 316.729 310.234 313.792 310.850 310.550 310.850 C 307.308 310.850 304.371 310.234 302.244 309.238 C 300.117 308.242 298.800 306.867 298.800 305.350 C 298.800 303.833 300.117 302.458 302.244 301.462 C 304.371 300.466 307.308 299.850 310.550 299.850 Z " transform="matrix(1, 0, 0, -1, -88, 607.55)"/>
            <path id="ID0.8126780902966857" fill="#2EB182" stroke="none" d="M 310.550 299.850 C 313.792 299.850 316.729 300.466 318.856 301.462 C 320.983 302.458 322.300 303.833 322.300 305.350 C 322.300 306.867 320.336 308.336 318.856 309.238 C 316.315 310.788 313.442 312.637 310.350 312.650 C 307.465 312.637 304.777 310.786 302.244 309.238 C 300.766 308.335 298.800 306.867 298.800 305.350 C 298.800 303.833 300.117 302.458 302.244 301.462 C 304.371 300.466 307.308 299.850 310.550 299.850 Z " transform="matrix(0.8978723287582397, 0, 0, -0.8978723287582397, -56.15, 575.9)"/>
          </g>
          <g id="ID0.9285071063786745">
            <path id="ID0.8126780902966857" fill="#000000" stroke="none" d="M 310.550 299.850 C 313.792 299.850 316.729 300.466 318.856 301.462 C 320.983 302.458 322.300 303.833 322.300 305.350 C 322.300 306.867 320.983 308.242 318.856 309.238 C 316.729 310.234 313.792 310.850 310.550 310.850 C 307.308 310.850 304.371 310.234 302.244 309.238 C 300.117 308.242 298.800 306.867 298.800 305.350 C 298.800 303.833 300.117 302.458 302.244 301.462 C 304.371 300.466 307.308 299.850 310.550 299.850 Z " transform="matrix(1, 0, 0, 1, -88, -8.75)"/>
            <path id="ID0.8126780902966857" fill="#2EB182" stroke="none" d="M 310.550 299.850 C 313.792 299.850 316.729 300.466 318.856 301.462 C 320.983 302.458 322.300 303.833 322.300 305.350 C 322.300 306.867 320.336 308.336 318.856 309.238 C 316.315 310.788 313.442 312.637 310.350 312.650 C 307.465 312.637 304.777 310.786 302.244 309.238 C 300.766 308.335 298.800 306.867 298.800 305.350 C 298.800 303.833 300.117 302.458 302.244 301.462 C 304.371 300.466 307.308 299.850 310.550 299.850 Z " transform="matrix(0.8978723287582397, 0, 0, 0.8978723287582397, -56.15, 22.9)"/>
          </g>
        </g>
      </g>
      <g id="ID0.9449964608065784">
        <path id="ID0.6997734643518925" fill="#000000" stroke="none" stroke-linecap="round" d="M 272.750 256.500 L 306 256.500 L 295.750 316.500 L 279.750 316.250 L 272.750 256.500 Z " transform="matrix(1, 0, 0, 0.8558211326599121, -65.25, 26.15)"/>
        <path id="ID0.6997734643518925" fill="#AA3578" stroke="none" stroke-linecap="round" d="M 279 255.900 L 308.450 245.550 L 295.450 317.900 L 282.150 314.850 L 279 255.900 Z " transform="matrix(0.8736842274665833, 0, 0, 0.7477174401283264, -29, 57.95)"/>
        <path id="ID0.6997734643518925" fill="#E84067" stroke="none" stroke-linecap="round" d="M 274.100 256.300 L 303.200 255.550 L 293.350 317.600 L 281.700 317.600 L 274.100 256.300 Z " transform="matrix(0.8721804618835449, 0, 0, 0.8444101810455322, -29.45, 27.35)"/>
      </g>
    </g>
    <g id="ID0.9117637574672699" transform="matrix(1, 0, 0, 1, 55, 16)">
      <path id="ID0.499543696641922" fill="#000000" stroke="none" d="M 222.500 90 C 252.158 90 279.033 100.309 298.494 116.963 C 317.954 133.618 330 156.618 330 182 C 330 207.382 317.954 230.382 298.494 247.037 C 279.033 263.691 252.158 274 222.500 274 C 192.842 274 165.967 263.691 146.506 247.037 C 127.046 230.382 115 207.382 115 182 C 115 156.618 127.046 133.618 146.506 116.963 C 165.967 100.309 192.842 90 222.500 90 Z " transform="matrix(1, 0, 0, 1, -41, -9)"/>
      <path id="ID0.9112754561938345" fill="#AA3578" stroke="none" d="M 253.750 117 C 283.339 117 310.152 126.945 329.567 143.011 C 348.982 159.077 361 181.265 361 205.750 C 361 230.235 348.982 252.423 329.567 268.489 C 310.152 284.555 283.339 294.500 253.750 294.500 C 224.161 294.500 197.348 284.555 177.933 268.489 C 158.518 252.423 146.500 230.235 146.500 205.750 C 146.500 181.265 158.518 159.077 177.933 143.011 C 197.348 126.945 224.161 117 253.750 117 Z " transform="matrix(0.9766899943351746, 0, 0, 1, -67.05, -33)"/>
      <path id="ID0.9112754561938345" fill="#E84067" stroke="none" d="M 253.750 117 C 279.569 119.524 307.185 126.419 327.350 142.900 C 345.463 158.094 358.772 182.155 361 205.750 C 363.007 227.010 354.497 251.330 338.700 265.900 C 320.368 282.800 293.185 290.369 267.950 291.550 C 241.460 292.788 214.056 284.758 190.700 272.200 C 172.336 262.321 155.441 246.725 148.050 227.700 C 140.464 208.787 141.051 185.171 149.150 166.950 C 156.692 149.992 173.873 137.894 190.700 129.800 C 209.947 120.668 232.421 114.915 253.750 117 Z " transform="matrix(0.9258741140365601, 0, 0, 0.9550121426582336, -48.6, -27.95)"/>
      <path id="ID0.013303269632160664" fill="#000000" stroke="none" stroke-linecap="round" d="M 256.750 198.250 C 264.395 199.915 272.076 199.838 279.750 199.750 C 285.354 199.684 290.794 199.272 296 198 C 301.048 196.751 305.922 194.648 310.250 192.250 C 313.833 190.265 317.008 187.339 320 184.750 C 321.469 183.478 323.845 178.659 324 180.500 C 324.580 187.396 324.353 195.612 321.750 202.500 C 318.398 210.790 314.138 219.771 306.639 224.742 C 296.623 231.378 285.519 235 272 235 C 258.481 235 246.231 231.078 237.361 224.742 C 228.491 218.406 225.401 209.217 223 200 C 221.154 192.902 222.544 185.174 224.500 178.250 C 225.029 176.462 226.447 180.878 227.500 182 C 230.621 184.885 233.442 188.249 237 190.250 C 243.186 193.729 249.818 196.738 256.750 198.250 Z " transform="matrix(1, 0, 0, 1, -73.5, -19.5)"/>
      <path id="ID0.013303269632160664" fill="#FFFFFF" stroke="none" stroke-linecap="round" d="M 256.750 198.250 C 264.395 199.915 272.076 199.838 279.750 199.750 C 285.354 199.684 290.794 199.272 296 198 C 301.048 196.751 305.922 194.648 310.250 192.250 C 313.833 190.265 316.696 187.162 320 184.750 C 321.593 183.587 324.744 179.759 324.850 181.700 C 325.618 188.628 324.504 195.990 321.750 202.500 C 318.254 210.743 314.138 219.771 306.639 224.742 C 296.623 231.378 285.519 235 272 235 C 258.481 235 246.231 231.078 237.361 224.742 C 228.491 218.406 225.700 209.135 223 200 C 220.982 193.173 221.747 185.452 223.450 178.400 C 223.919 176.765 226.230 180.889 227.500 182 C 230.660 184.754 233.442 188.249 237 190.250 C 243.186 193.729 249.818 196.738 256.750 198.250 Z " transform="matrix(0.9642508029937744, 0, 0, 0.9182174205780029, -64, -1.8)"/>
    </g>
    <g id="ID0.4860364100895822" transform="matrix(1, 0, 0, 1, 55, 16)">
      <g id="ID0.7177461087703705">
        <g id="ID0.9925115103833377">
          <g id="ID0.737580387853086">
            <path id="ID0.08681072387844324" fill="#000000" stroke="none" stroke-linecap="round" d="M 88.400 170 C 94.723 169.884 103.059 168.300 107.150 173 C 110.386 176.719 103.193 182.663 104.150 187.500 C 105.295 193.295 112.425 197.212 113.150 203.250 C 113.654 208.294 110.344 213.309 107.483 217.561 C 105.858 219.975 102.970 222.089 99.900 222.750 C 95.956 223.482 91.743 221.740 87.650 221.500 C 83.849 221.275 80.043 222.464 76.400 221.750 C 73.922 221.097 71.200 219.689 70.017 217.561 C 67.445 212.925 64.875 207.542 65.650 202.250 C 66.718 195.765 73.406 191.204 75.150 184.750 C 76.137 181.102 71.003 176.331 73.650 173.500 C 76.930 169.734 83.178 170.097 88.400 170 Z " transform="matrix(1, 0, 0, 1, -64.75, -6.75)"/>
            <path id="ID0.08681072387844324" fill="#CCCCCC" stroke="none" stroke-linecap="round" d="M 88.400 170 C 94.723 169.884 103.059 168.300 107.150 173 C 110.386 176.719 103.418 182.624 104.150 187.500 C 104.825 191.999 108.939 194.862 111.050 198.700 C 112.190 200.771 114.113 202.823 113.500 205.050 C 113.134 207.378 108.676 209.421 108.600 210.100 C 108.525 210.771 114.106 207.101 113.500 208.500 C 111.504 213.100 108.431 219.360 103.400 221.800 C 98.754 224.226 92.898 221.568 87.650 221.500 C 83.903 221.451 80.043 222.464 76.400 221.750 C 73.922 221.097 71.200 219.689 70.017 217.561 C 67.445 212.925 64.875 207.542 65.650 202.250 C 66.718 195.765 73.406 191.204 75.150 184.750 C 76.137 181.102 71.003 176.331 73.650 173.500 C 76.930 169.734 83.178 170.097 88.400 170 Z " transform="matrix(0.9129979014396667, 0, 0, 0.942299485206604, -57.25, 4.25)"/>
            <path id="ID0.08681072387844324" fill="#FFFFFF" stroke="none" stroke-linecap="round" d="M 88.400 170 C 94.723 169.884 103.059 168.300 107.150 173 C 110.386 176.719 103.193 182.663 104.150 187.500 C 105.295 193.295 112.425 197.212 113.150 203.250 C 113.654 208.294 110.344 213.309 107.483 217.561 C 105.858 219.975 102.970 222.089 99.900 222.750 C 95.956 223.482 91.743 221.740 87.650 221.500 C 83.849 221.275 80.043 222.464 76.400 221.750 C 73.922 221.097 71.200 219.689 70.017 217.561 C 67.445 212.925 64.875 207.542 65.650 202.250 C 66.718 195.765 73.406 191.204 75.150 184.750 C 76.137 181.102 71.003 176.331 73.650 173.500 C 76.930 169.734 83.178 170.097 88.400 170 Z " transform="matrix(0.8396226763725281, 0, 0, 0.9098436832427979, -52.05, 9.9)"/>
            <path id="ID0.1874967459589243" fill="#000000" stroke="none" stroke-linecap="round" d="M 82.100 182.900 C 83.128 183.032 84.253 183.022 85.200 182.600 C 86.317 182.103 87.459 179.894 87.900 180.250 C 88.411 180.617 88.202 183.299 87.162 184.091 C 85.816 185.114 84.091 184.750 82.125 184.750 C 80.159 184.750 78.345 185.222 77.088 184.091 C 76.114 183.214 76.849 180.835 77.150 180.100 C 77.258 179.748 77.398 181.497 77.950 181.800 C 79.206 182.478 80.660 182.714 82.100 182.900 Z " transform="matrix(1, 0, 0, 1, -60, -14.5)"/>
          </g>
          <g id="ID0.5564725492149591">
            <path id="ID0.8438295354135334" fill="#000000" stroke="none" stroke-linecap="round" d="M 87.700 216.750 C 89.761 216.797 92.448 216.967 93.700 218.650 C 94.921 220.288 94.024 222.853 93.500 224.850 C 92.959 226.906 91.786 228.669 90.850 230.500 C 90.117 231.723 89.840 234.409 88.500 234 C 85.905 233.205 84.415 230.205 83 227.850 C 81.717 225.712 80.803 223.174 80.700 220.650 C 80.598 219.633 81.500 218.669 82.438 218.138 C 84.017 217.250 85.889 216.710 87.700 216.750 Z " transform="matrix(1, 0, 0, 1, -72.25, -13.5)"/>
            <path id="ID0.8438295354135334" fill="#CCCCCC" stroke="none" stroke-linecap="round" d="M 87.700 216.750 C 89.761 216.797 92.448 216.967 93.700 218.650 C 94.921 220.288 94.024 222.853 93.500 224.850 C 92.959 226.906 91.786 228.669 90.850 230.500 C 90.117 231.723 89.840 234.409 88.500 234 C 85.905 233.205 84.415 230.205 83 227.850 C 81.717 225.712 80.803 223.174 80.700 220.650 C 80.598 219.633 81.500 218.669 82.438 218.138 C 84.017 217.250 85.889 216.710 87.700 216.750 Z " transform="matrix(1, 0, 0, 1, -72.35, -15)"/>
            <path id="ID0.8438295354135334" fill="#FFFFFF" stroke="none" stroke-linecap="round" d="M 87.700 216.750 C 90.084 216.726 93.286 216.259 94.650 218.250 C 95.976 220.017 94.189 222.641 93.500 224.850 C 92.882 226.834 91.659 228.587 90.850 230.500 C 90.237 231.947 90.556 235.440 89.200 235 C 86.631 234.115 84.612 230.546 83 227.850 C 81.708 225.690 80.803 223.174 80.700 220.650 C 80.598 219.633 81.500 218.669 82.438 218.138 C 84.017 217.250 85.888 216.768 87.700 216.750 Z " transform="matrix(0.9007353186607361, 0, 0, 0.9632353186607361, -64.5, -7.3)"/>
          </g>
          <g id="ID0.5564725492149591">
            <path id="ID0.8438295354135334" fill="#000000" stroke="none" stroke-linecap="round" d="M 87.700 216.750 C 89.761 216.797 92.448 216.967 93.700 218.650 C 94.921 220.288 94.024 222.853 93.500 224.850 C 92.959 226.906 91.786 228.669 90.850 230.500 C 90.117 231.723 89.840 234.409 88.500 234 C 85.905 233.205 84.415 230.205 83 227.850 C 81.717 225.712 80.803 223.174 80.700 220.650 C 80.598 219.633 81.500 218.669 82.438 218.138 C 84.017 217.250 85.889 216.710 87.700 216.750 Z " transform="matrix(1, 0, 0, 1, -57.4, -12.8)"/>
            <path id="ID0.8438295354135334" fill="#CCCCCC" stroke="none" stroke-linecap="round" d="M 87.700 216.750 C 89.761 216.797 92.448 216.967 93.700 218.650 C 94.921 220.288 94.024 222.853 93.500 224.850 C 92.959 226.906 91.786 228.669 90.850 230.500 C 90.117 231.723 89.840 234.409 88.500 234 C 85.905 233.205 84.415 230.205 83 227.850 C 81.717 225.712 80.803 223.174 80.700 220.650 C 80.598 219.633 81.500 218.669 82.438 218.138 C 84.017 217.250 85.889 216.710 87.700 216.750 Z " transform="matrix(1, 0, 0, 1, -57.5, -14.3)"/>
            <path id="ID0.8438295354135334" fill="#FFFFFF" stroke="none" stroke-linecap="round" d="M 87.700 216.750 C 90.084 216.726 93.286 216.259 94.650 218.250 C 95.976 220.017 94.189 222.641 93.500 224.850 C 92.882 226.834 91.659 228.587 90.850 230.500 C 90.237 231.947 90.556 235.440 89.200 235 C 86.631 234.115 84.612 230.546 83 227.850 C 81.708 225.690 80.803 223.174 80.700 220.650 C 80.598 219.633 81.500 218.669 82.438 218.138 C 84.017 217.250 85.888 216.768 87.700 216.750 Z " transform="matrix(0.9007353186607361, 0, 0, 0.9632353186607361, -49.65, -6.65)"/>
          </g>
        </g>
        <g id="ID0.561114891897887">
          <path id="ID0.08446970768272877" fill="#000000" stroke="none" stroke-linecap="round" d="M 116.850 136.650 C 119.272 135.951 115.899 140.321 116.179 142.105 C 116.987 147.243 118.999 152.097 120 157.250 C 120.609 160.827 121.266 164.582 121 168.250 C 120.932 169.178 120.211 169.864 119.200 170.100 C 115.014 171.043 110.573 170.608 106.450 171.550 C 101.496 172.681 95.894 173.372 91.950 176.300 C 89.262 178.298 90.297 183.370 87.450 185.300 C 85.175 186.842 80.526 187.478 79.200 185.050 C 76.764 179.887 77.238 173.338 78.750 167.750 C 80.561 161.122 83.930 154.343 89.250 150 C 97.133 143.565 107.038 139.538 116.850 136.650 Z " transform="matrix(1, 0, 0, 1, -61.25, -17.25)"/>
          <path id="ID0.08446970768272877" fill="#AA3578" stroke="none" stroke-linecap="round" d="M 116.250 136.500 C 117.671 135.233 115.882 140.263 116.179 142.105 C 116.999 147.155 118.999 152.097 120 157.250 C 120.609 160.827 121.600 164.625 121 168.250 C 120.794 169.449 119.358 169.878 118.250 170.250 C 113.547 171.416 108.472 171.297 104 172.750 C 99.040 174.363 93.635 175.775 89.750 179.250 C 86.952 181.759 88.284 187.418 85.450 190.050 C 83.812 191.560 78.647 191.491 78.450 189.150 C 77.878 182.371 80.371 175.157 84.200 169.550 C 88.558 163.181 97.527 161.156 103.200 155.750 C 108.345 150.001 110.565 141.567 116.250 136.500 Z " transform="matrix(1, 0, 0, 0.8162475824356079, -59.75, 11.9)"/>
          <path id="ID0.08446970768272877" fill="#E84067" stroke="none" stroke-linecap="round" d="M 117 137.550 C 119.319 136.821 119.400 141.190 120 143.300 C 121.858 149.833 123.588 156.481 124.250 163.250 C 124.435 165.129 124.101 167.299 123 168.750 C 121.820 169.962 119.732 169.914 118.250 170.250 C 113.544 171.292 108.472 171.297 104 172.750 C 99.040 174.363 93.233 175.368 89.750 179.250 C 86.112 183.306 87.720 190.179 84.500 194.450 C 83.429 195.859 80.083 194.888 79.750 193.250 C 78.420 186.698 78.180 179.918 80 173.650 C 82.244 165.914 85.648 157.634 91.500 151.900 C 98.453 145.088 107.659 140.340 117 137.550 Z " transform="matrix(1, 0, 0, 0.8162475824356079, -60.8, 8.5)"/>
        </g>
      </g>
      <g id="ID0.21826385613530874">
        <path id="ID0.8378408495336771" fill="#000000" stroke="none" stroke-linecap="round" d="M 149 139.250 C 160.856 138.895 173.678 137.344 184.255 142.107 C 190.242 144.804 193.135 152.741 194 159.250 C 194.645 164.109 191.750 169.413 188.250 173 C 186.122 175.038 182.304 173.818 179.250 174 C 172.839 174.382 166.375 174.154 160 174.500 C 154.325 174.808 148.634 175.647 143 176 C 138.970 176.147 134.678 177.272 131 176 C 129.745 175.563 131.563 173.354 131.250 172 C 130.256 167.688 127.710 163.639 127.500 159.250 C 127.280 154.629 128.736 150.062 129.500 145.500 C 129.694 144.348 128.137 144.255 129.750 143.750 C 136.201 141.730 142.504 139.449 149 139.250 Z " transform="matrix(1, 0, 0, 1, -77, -23.5)"/>
        <path id="ID0.8378408495336771" fill="#AA3578" stroke="none" stroke-linecap="round" d="M 161.250 138.500 C 168.985 137.955 177.609 137.900 184.255 142.107 C 189.807 145.622 192.489 152.860 194 159.250 C 195.109 163.947 194.190 169.602 191.500 173.800 C 190.310 175.730 186.908 174.178 184.500 174.250 C 176.345 174.493 168.147 174.059 160 174.500 C 152.921 174.884 146.067 176.043 139.100 176.700 C 136.105 176.982 132.401 178.738 130 177.400 C 128.651 176.588 131.273 174.618 131.600 172.400 C 132.906 163.526 128.823 152.396 134.750 145.650 C 140.783 138.784 151.947 139.154 161.250 138.500 Z " transform="matrix(1, 0, 0, 0.7103274464607239, -78.75, 25.25)"/>
        <path id="ID0.8378408495336771" fill="#E84067" stroke="none" stroke-linecap="round" d="M 181.250 139.500 C 184.014 139.694 186.981 139.459 189.400 140.750 C 191.186 141.541 192.493 143.042 192.950 145.300 C 194.776 154.333 198.755 163.984 196.300 172.850 C 195.071 176.607 188.317 174.071 184.500 174.250 C 176.350 174.632 168.153 174.204 160 174.500 C 151.596 174.805 142.937 175.777 134.400 176.250 C 132.276 176.362 129.868 177.847 129.300 176.250 C 127.079 170.976 127.466 164.938 127.500 159.250 C 127.528 154.624 125.611 148.003 129.500 145.500 C 138.171 139.939 149.096 139.507 159.100 138.300 C 166.507 137.488 173.885 138.984 181.250 139.500 Z " transform="matrix(0.9814126491546631, 0, 0, 0.8173803687095642, -75.65, 3.45)"/>
      </g>
    </g>
    <g id="ID0.01163864228874445" transform="matrix(1, 0, 0, 1, 55, 16)">
      <g id="ID0.5408020317554474">
        <g id="ID0.6583024775609374">
          <g id="ID0.7230383609421551">
            <path id="ID0.4434986845590174" fill="#000000" stroke="none" stroke-linecap="round" d="M 320.350 339.900 C 328.010 339.962 335.752 339.200 343.350 340.400 C 345.186 340.716 344.114 342.644 343.700 343.650 C 343.340 344.511 343.416 344.997 341.600 345.150 C 334.337 345.763 327.148 345.675 320 345.650 C 312.690 345.625 305.334 345.714 298.200 345 C 296.418 344.822 297.172 344.117 297 343.400 C 296.752 342.292 295.458 340.283 297.350 340 C 304.927 338.870 312.794 339.839 320.350 339.900 Z " transform="matrix(-1, 0, 0, 1, 453.35, -14)"/>
            <path id="ID0.4434986845590174" fill="#8097B2" stroke="none" stroke-linecap="round" d="M 320.350 339.900 C 328.010 339.962 335.752 339.200 343.350 340.400 C 345.186 340.716 344.114 342.644 343.700 343.650 C 343.340 344.511 343.416 344.997 341.600 345.150 C 334.337 345.763 327.148 345.675 320 345.650 C 312.690 345.625 305.334 345.714 298.200 345 C 296.418 344.822 297.172 344.117 297 343.400 C 296.752 342.292 295.458 340.283 297.350 340 C 304.927 338.870 312.794 339.839 320.350 339.900 Z " transform="matrix(-0.9729729890823364, 0, 0, 0.8064516186714172, 444.6, 52.2)"/>
          </g>
          <g id="ID0.6856644409708679">
            <path id="ID0.7449960573576391" fill="#000000" stroke="none" stroke-linecap="round" d="M 292.625 310 C 296.843 309.910 300.955 310.883 305.050 311.300 C 309.421 311.765 314.864 309.748 318.050 312.650 C 322.337 316.557 324.315 323.059 324.450 328.850 C 324.424 333.292 321.086 337.290 318.350 340.750 C 317.369 341.988 315.629 341.844 313.850 342 C 306.126 342.622 298.516 342.957 290.850 343 C 283.540 343.041 275.824 342.826 268.350 342.250 C 266.482 342.106 265.325 341.935 264.750 340.700 C 262.943 337.108 261.619 333.032 261.750 328.875 C 261.902 324.080 262.985 318.941 265.600 315 C 266.965 312.753 270.168 312.407 272.600 312 C 279.217 310.910 285.925 310.144 292.625 310 Z " transform="matrix(-0.9028339982032776, 0, 0, 0.7473291754722595, 396.5, 71.85)"/>
            <path id="ID0.7449960573576391" fill="#E84067" stroke="none" stroke-linecap="round" d="M 306.450 311.700 C 310.640 311.867 315.842 309.824 319 312.750 C 323.322 316.758 325.171 323.469 325.150 329.350 C 324.932 333.750 321.190 337.445 318.350 340.750 C 317.330 341.937 315.730 341.889 313.850 342 C 306.327 342.445 298.746 342.486 291.200 342.600 C 283.592 342.570 275.959 342.604 268.350 342.250 C 266.448 342.161 264.962 342.356 264.300 341.100 C 262.505 337.378 261.568 333.088 261.750 328.875 C 261.958 324.075 263.108 319.097 265.600 315 C 266.777 313.065 269.732 312.848 271.950 312.200 C 274.159 311.555 276.535 311.141 278.900 311.100 C 288.056 310.974 297.241 311.334 306.450 311.700 Z " transform="matrix(-0.8542510271072388, 0, 0, 0.6933716535568237, 382.35, 89.4)"/>
            <path id="ID0.13382242107763886" fill="#FFE46D" stroke="none" stroke-linecap="round" d="M 308.250 319.650 L 313 319 L 317.500 319.900 L 327 319.150 L 333.750 320.150 L 327.600 346.150 L 304.850 345.850 L 308.250 319.650 Z " transform="matrix(-1, 0, 0, 0.8277592062950134, 453.35, 40.6)"/>
          </g>
          <path id="ID0.14804799063131213" fill="#000000" stroke="none" stroke-linecap="round" d="M 311.700 318.500 L 338 318.500 L 334.100 326.850 L 308 325.600 L 311.700 318.500 Z " transform="matrix(-0.875, 0, 0, 1, 411.15, -14)"/>
          <path id="ID0.14804799063131213" fill="#8097B2" stroke="none" stroke-linecap="round" d="M 311.700 318.500 L 337.650 319.750 L 334.100 326.850 L 308 325.600 L 311.700 318.500 Z " transform="matrix(-0.8195833563804626, 0, 0, 0.9366666674613953, 393.1, 5.75)"/>
          <g id="ID0.8617572472430766">
            <path id="ID0.12417209101840854" fill="#000000" stroke="none" d="M 315.925 320.350 C 316.856 320.350 317.700 320.566 318.311 320.914 C 318.922 321.263 319.300 321.744 319.300 322.275 C 319.300 322.806 318.922 323.287 318.311 323.636 C 317.700 323.984 316.856 324.200 315.925 324.200 C 314.994 324.200 314.150 323.984 313.539 323.636 C 312.928 323.287 312.550 322.806 312.550 322.275 C 312.550 321.744 312.928 321.263 313.539 320.914 C 314.150 320.566 314.994 320.350 315.925 320.350 Z " transform="matrix(-0.875, 0, 0, 1, 411.2, -14)"/>
            <path id="ID0.6995338806882501" fill="#8097B2" stroke="none" d="M 315.900 320.800 C 316.672 320.800 317.372 320.957 317.879 321.210 C 318.386 321.464 318.700 321.814 318.700 322.200 C 318.700 322.586 318.386 322.936 317.879 323.190 C 317.372 323.443 316.672 323.600 315.900 323.600 C 315.128 323.600 314.428 323.443 313.921 323.190 C 313.414 322.936 313.100 322.586 313.100 322.200 C 313.100 321.814 313.414 321.464 313.921 321.210 C 314.428 320.957 315.128 320.800 315.900 320.800 Z " transform="matrix(-0.875, 0, 0, 1, 411.2, -14)"/>
          </g>
          <g id="ID0.8617572472430766">
            <path id="ID0.12417209101840854" fill="#000000" stroke="none" d="M 315.925 320.350 C 316.856 320.350 317.700 320.566 318.311 320.914 C 318.922 321.263 319.300 321.744 319.300 322.275 C 319.300 322.806 318.922 323.287 318.311 323.636 C 317.700 323.984 316.856 324.200 315.925 324.200 C 314.994 324.200 314.150 323.984 313.539 323.636 C 312.928 323.287 312.550 322.806 312.550 322.275 C 312.550 321.744 312.928 321.263 313.539 320.914 C 314.150 320.566 314.994 320.350 315.925 320.350 Z " transform="matrix(-0.875, 0, 0, 1, 401.35, -13.2)"/>
            <path id="ID0.6995338806882501" fill="#8097B2" stroke="none" d="M 315.900 320.800 C 316.672 320.800 317.372 320.957 317.879 321.210 C 318.386 321.464 318.700 321.814 318.700 322.200 C 318.700 322.586 318.386 322.936 317.879 323.190 C 317.372 323.443 316.672 323.600 315.900 323.600 C 315.128 323.600 314.428 323.443 313.921 323.190 C 313.414 322.936 313.100 322.586 313.100 322.200 C 313.100 321.814 313.414 321.464 313.921 321.210 C 314.428 320.957 315.128 320.800 315.900 320.800 Z " transform="matrix(-0.875, 0, 0, 1, 401.35, -13.2)"/>
          </g>
          <g id="ID0.8617572472430766">
            <path id="ID0.12417209101840854" fill="#000000" stroke="none" d="M 315.925 320.350 C 316.856 320.350 317.700 320.566 318.311 320.914 C 318.922 321.263 319.300 321.744 319.300 322.275 C 319.300 322.806 318.922 323.287 318.311 323.636 C 317.700 323.984 316.856 324.200 315.925 324.200 C 314.994 324.200 314.150 323.984 313.539 323.636 C 312.928 323.287 312.550 322.806 312.550 322.275 C 312.550 321.744 312.928 321.263 313.539 320.914 C 314.150 320.566 314.994 320.350 315.925 320.350 Z " transform="matrix(-0.875, 0, 0, 0.8701298832893372, 400.5, 24.5)"/>
            <path id="ID0.6995338806882501" fill="#8097B2" stroke="none" d="M 315.900 320.800 C 316.672 320.800 317.372 320.957 317.879 321.210 C 318.386 321.464 318.700 321.814 318.700 322.200 C 318.700 322.586 318.386 322.936 317.879 323.190 C 317.372 323.443 316.672 323.600 315.900 323.600 C 315.128 323.600 314.428 323.443 313.921 323.190 C 313.414 322.936 313.100 322.586 313.100 322.200 C 313.100 321.814 313.414 321.464 313.921 321.210 C 314.428 320.957 315.128 320.800 315.900 320.800 Z " transform="matrix(-0.875, 0, 0, 0.8701298832893372, 400.5, 24.5)"/>
          </g>
          <g id="ID0.8617572472430766">
            <path id="ID0.12417209101840854" fill="#000000" stroke="none" d="M 315.925 320.350 C 316.856 320.350 317.700 320.566 318.311 320.914 C 318.922 321.263 319.300 321.744 319.300 322.275 C 319.300 322.806 318.922 323.287 318.311 323.636 C 317.700 323.984 316.856 324.200 315.925 324.200 C 314.994 324.200 314.150 323.984 313.539 323.636 C 312.928 323.287 312.550 322.806 312.550 322.275 C 312.550 321.744 312.928 321.263 313.539 320.914 C 314.150 320.566 314.994 320.350 315.925 320.350 Z " transform="matrix(-0.875, 0, 0, 0.8701298832893372, 409.7, 23.95)"/>
            <path id="ID0.6995338806882501" fill="#8097B2" stroke="none" d="M 315.900 320.800 C 316.672 320.800 317.372 320.957 317.879 321.210 C 318.386 321.464 318.700 321.814 318.700 322.200 C 318.700 322.586 318.386 322.936 317.879 323.190 C 317.372 323.443 316.672 323.600 315.900 323.600 C 315.128 323.600 314.428 323.443 313.921 323.190 C 313.414 322.936 313.100 322.586 313.100 322.200 C 313.100 321.814 313.414 321.464 313.921 321.210 C 314.428 320.957 315.128 320.800 315.900 320.800 Z " transform="matrix(-0.875, 0, 0, 0.8701298832893372, 409.7, 23.95)"/>
          </g>
        </g>
        <g id="ID0.11076520662754774">
          <g id="ID0.9285071063786745">
            <path id="ID0.8126780902966857" fill="#000000" stroke="none" d="M 310.550 299.850 C 313.792 299.850 316.729 300.466 318.856 301.462 C 320.983 302.458 322.300 303.833 322.300 305.350 C 322.300 306.867 320.983 308.242 318.856 309.238 C 316.729 310.234 313.792 310.850 310.550 310.850 C 307.308 310.850 304.371 310.234 302.244 309.238 C 300.117 308.242 298.800 306.867 298.800 305.350 C 298.800 303.833 300.117 302.458 302.244 301.462 C 304.371 300.466 307.308 299.850 310.550 299.850 Z " transform="matrix(-1, 0, 0, -1, 458.6, 609.05)"/>
            <path id="ID0.8126780902966857" fill="#2EB182" stroke="none" d="M 310.550 299.850 C 313.792 299.850 316.729 300.466 318.856 301.462 C 320.983 302.458 322.300 303.833 322.300 305.350 C 322.300 306.867 320.336 308.336 318.856 309.238 C 316.315 310.788 313.442 312.637 310.350 312.650 C 307.465 312.637 304.777 310.786 302.244 309.238 C 300.766 308.335 298.800 306.867 298.800 305.350 C 298.800 303.833 300.117 302.458 302.244 301.462 C 304.371 300.466 307.308 299.850 310.550 299.850 Z " transform="matrix(-0.8978723287582397, 0, 0, -0.8978723287582397, 426.75, 577.4)"/>
          </g>
          <g id="ID0.9285071063786745">
            <path id="ID0.8126780902966857" fill="#000000" stroke="none" d="M 310.550 299.850 C 313.792 299.850 316.729 300.466 318.856 301.462 C 320.983 302.458 322.300 303.833 322.300 305.350 C 322.300 306.867 320.983 308.242 318.856 309.238 C 316.729 310.234 313.792 310.850 310.550 310.850 C 307.308 310.850 304.371 310.234 302.244 309.238 C 300.117 308.242 298.800 306.867 298.800 305.350 C 298.800 303.833 300.117 302.458 302.244 301.462 C 304.371 300.466 307.308 299.850 310.550 299.850 Z " transform="matrix(-1, 0, 0, 1, 458.6, -7.25)"/>
            <path id="ID0.8126780902966857" fill="#2EB182" stroke="none" d="M 310.550 299.850 C 313.792 299.850 316.729 300.466 318.856 301.462 C 320.983 302.458 322.300 303.833 322.300 305.350 C 322.300 306.867 320.336 308.336 318.856 309.238 C 316.315 310.788 313.442 312.637 310.350 312.650 C 307.465 312.637 304.777 310.786 302.244 309.238 C 300.766 308.335 298.800 306.867 298.800 305.350 C 298.800 303.833 300.117 302.458 302.244 301.462 C 304.371 300.466 307.308 299.850 310.550 299.850 Z " transform="matrix(-0.8978723287582397, 0, 0, 0.8978723287582397, 426.75, 24.4)"/>
          </g>
        </g>
      </g>
      <g id="ID0.9449964608065784">
        <path id="ID0.6997734643518925" fill="#000000" stroke="none" stroke-linecap="round" d="M 273.550 264.300 L 305.550 261.950 L 295.750 316.500 L 279.750 316.250 L 273.550 264.300 Z " transform="matrix(1, 0, 0, 0.8558211326599121, -139.75, 28.3)"/>
        <path id="ID0.6997734643518925" fill="#AA3578" stroke="none" stroke-linecap="round" d="M 279 255.900 L 307.100 255.300 L 295.450 317.900 L 282.150 314.850 L 279 255.900 Z " transform="matrix(0.8736842274665833, 0, 0, 0.7477174401283264, -103.5, 60.1)"/>
        <path id="ID0.6997734643518925" fill="#E84067" stroke="none" stroke-linecap="round" d="M 272.600 241 L 306.400 240.400 L 293.350 317.600 L 281.700 317.600 L 272.600 241 Z " transform="matrix(0.8721804618835449, 0, 0, 0.8444101810455322, -103.95, 29.5)"/>
      </g>
    </g>
    <g id="ID0.565366052556783" transform="matrix(1, 0, 0, 1, 55, 16)">
      <g id="ID0.33185582561418414">
        <path id="ID0.4514742437750101" fill="#2B1234" stroke="none" d="M 247.250 106.500 C 263.045 106.500 277.357 111.234 287.721 118.883 C 298.085 126.531 304.500 137.094 304.500 148.750 C 304.500 160.406 298.085 170.969 287.721 178.617 C 277.357 186.266 263.045 191 247.250 191 C 231.455 191 217.143 186.266 206.779 178.617 C 196.415 170.969 190 160.406 190 148.750 C 190 137.094 196.415 126.531 206.779 118.883 C 217.143 111.234 231.455 106.500 247.250 106.500 Z " transform="matrix(1, 0, 0, 1, -54, -42.5)"/>
        <g id="ID0.24158488726243377">
          <g id="ID0.820813896600157">
            <path id="ID0.7614743588492274" fill="#000000" stroke="none" stroke-linecap="round" d="M 243.350 2.650 C 263.743 3.862 284.928 14.304 298.750 29.450 C 311.344 43.251 315.913 64.027 315.700 82.500 C 315.750 94.590 307.482 106.214 298.300 114 C 288.832 122.058 275.576 124.787 263.550 127.600 C 255.216 129.549 246.324 129.202 237.700 129 C 226.158 128.729 214.230 128.107 202.950 125.250 C 195.607 123.381 189.233 117.569 182.250 114 C 177.928 111.785 171.021 112.912 169.100 108.800 C 164.956 99.337 163.770 87.871 166.300 78.300 C 171.526 58.540 176.868 36.873 191.650 22.400 C 204.818 9.507 224.869 1.304 243.350 2.650 Z " transform="matrix(1.0643086433410645, 0, 0, 1.0643086433410645, -71.5, -1.8)"/>
            <path id="ID0.7614743588492274" fill="#AA3578" stroke="none" stroke-linecap="round" d="M 243.350 2.650 C 263.743 3.862 284.928 14.304 298.750 29.450 C 311.344 43.251 315.913 64.027 315.700 82.500 C 315.750 94.590 307.482 106.214 298.300 114 C 288.832 122.058 275.576 124.787 263.550 127.600 C 255.216 129.549 246.324 129.202 237.700 129 C 226.158 128.729 214.230 128.107 202.950 125.250 C 195.607 123.381 188.931 118.109 182.250 114 C 177.267 110.941 169.781 109.374 167.100 103.900 C 163.852 96.105 163.924 86.467 166.300 78.300 C 171.998 58.676 176.868 36.873 191.650 22.400 C 204.818 9.507 224.869 1.304 243.350 2.650 Z " transform="matrix(1.0241127014160156, 0, 0, 1.0241127014160156, -61.6, 0.6)"/>
            <path id="ID0.7614743588492274" fill="#E84067" stroke="none" stroke-linecap="round" d="M 254.750 7.450 C 271.088 8.639 288.090 16.563 298.750 29.450 C 310.565 43.743 315.913 64.027 315.700 82.500 C 315.750 94.590 307.482 106.214 298.300 114 C 288.832 122.058 275.576 124.787 263.550 127.600 C 255.216 129.549 246.324 129.202 237.700 129 C 226.158 128.729 214.092 128.613 202.950 125.250 C 197.784 123.695 194.982 118.741 191.750 114.800 C 188.598 110.966 185.535 106.581 184.700 101.700 C 182.693 89.937 181.302 77.136 184.200 65.400 C 187.976 50.108 192.831 32.627 205.350 22.550 C 218.453 11.581 237.238 6.177 254.750 7.450 Z " transform="matrix(0.9921507835388184, 0, 0, 0.9921507835388184, -50.75, 5.1)"/>
          </g>
          <g id="ID0.3919230280444026">
            <path id="ID0.9844551202841103" fill="#000000" stroke="none" stroke-linecap="round" d="M 241.250 111.250 C 243.712 112.102 248.522 111.602 248.250 114.750 C 246.741 127.138 239.110 138.175 236.750 150.500 C 235.512 156.961 235.827 163.929 237.250 170.250 C 238.641 175.868 248.475 186.069 245 185.500 C 238.164 184.366 223.005 176.308 216.250 167.250 C 209.387 158.373 207.369 146.263 206.750 135.125 C 206.173 124.733 207.874 113.875 212.500 104.750 C 213.902 101.972 218.622 105.314 221.500 106 C 228.118 107.579 234.756 109.002 241.250 111.250 Z " transform="matrix(-0.7564809322357178, 0.2405613362789154, 0.06070453301072121, 0.7516798973083496, 418.45, -42.9)"/>
            <path id="ID0.9844551202841103" fill="#E84067" stroke="none" stroke-linecap="round" d="M 227.150 103.700 C 230.050 116.640 223.168 129.951 222.800 143.300 C 222.654 148.581 223.578 153.993 225.400 158.950 C 227.048 163.417 229.724 167.291 232.350 171.050 C 236.278 176.169 247.977 186.175 245 185.500 C 240.892 184.574 223.005 176.308 216.250 167.250 C 209.387 158.373 207.287 146.267 206.750 135.125 C 206.173 123.147 206.246 109.785 212.700 99.850 C 215.455 95.599 226.069 98.910 227.150 103.700 Z " transform="matrix(-0.653104841709137, 0.20768767595291138, 0.05521329492330551, 0.6836840510368347, 395.95, -24.8)"/>
            <path id="ID0.9844551202841103" fill="#E84067" stroke="none" stroke-linecap="round" d="M 227.950 102.950 C 231.709 103.756 235.507 104.867 238.850 106.750 C 241.789 108.414 247.476 109.449 247 112.500 C 244.407 124.964 233.865 134.813 230.950 146.700 C 228.837 155.323 229.991 164.813 231.750 173.350 C 232.781 178.360 242.032 187.694 239.350 186.700 C 234.888 185.049 221.677 175.704 216.250 167.250 C 210.225 157.862 206.555 146.278 206.750 135.125 C 206.952 123.588 211.101 111.790 217.350 102.150 C 219.382 99.223 224.501 102.212 227.950 102.950 Z " transform="matrix(-0.6956146359443665, 0.22120581567287445, 0.055820245295763016, 0.6911998987197876, 401.85, -28.5)"/>
          </g>
          <g id="ID0.3919230280444026">
            <path id="ID0.9844551202841103" fill="#000000" stroke="none" stroke-linecap="round" d="M 241.250 111.250 C 243.712 112.102 248.522 111.602 248.250 114.750 C 246.741 127.138 239.110 138.175 236.750 150.500 C 235.512 156.961 235.827 163.929 237.250 170.250 C 238.641 175.868 248.475 186.069 245 185.500 C 238.164 184.366 223.005 176.308 216.250 167.250 C 209.387 158.373 207.369 146.263 206.750 135.125 C 206.173 124.733 207.874 113.875 212.500 104.750 C 213.902 101.972 218.622 105.314 221.500 106 C 228.118 107.579 234.756 109.002 241.250 111.250 Z " transform="matrix(0.7814229726791382, -0.6240017414093018, 0.6240017414093018, 0.7814229726791382, -108.8, 152.95)"/>
            <path id="ID0.9844551202841103" fill="#AA3578" stroke="none" stroke-linecap="round" d="M 227.150 103.700 C 230.050 116.640 223.168 129.951 222.800 143.300 C 222.654 148.581 223.578 153.993 225.400 158.950 C 227.048 163.417 229.724 167.291 232.350 171.050 C 236.278 176.169 247.977 186.175 245 185.500 C 240.892 184.574 223.005 176.308 216.250 167.250 C 209.387 158.373 207.287 146.267 206.750 135.125 C 206.173 123.147 206.246 109.785 212.700 99.850 C 215.455 95.599 226.069 98.910 227.150 103.700 Z " transform="matrix(0.6746384501457214, -0.5387294888496399, 0.5675554871559143, 0.7107366323471069, -75.75, 144.75)"/>
            <path id="ID0.9844551202841103" fill="#E84067" stroke="none" stroke-linecap="round" d="M 227.950 102.950 C 231.709 103.756 235.507 104.867 238.850 106.750 C 241.789 108.414 247.476 109.449 247 112.500 C 244.407 124.964 233.865 134.813 230.950 146.700 C 228.837 155.323 229.991 164.813 231.750 173.350 C 232.781 178.360 242.032 187.694 239.350 186.700 C 234.888 185.049 221.677 175.704 216.250 167.250 C 210.225 157.862 206.555 146.278 206.750 135.125 C 206.952 123.588 211.101 111.790 217.350 102.150 C 219.382 99.223 224.501 102.212 227.950 102.950 Z " transform="matrix(0.7185498476028442, -0.5737947225570679, 0.5737947225570679, 0.7185498476028442, -83.5, 147.9)"/>
          </g>
          <g id="ID0.3919230280444026">
            <path id="ID0.9844551202841103" fill="#000000" stroke="none" stroke-linecap="round" d="M 241.250 111.250 C 243.712 112.102 248.522 111.602 248.250 114.750 C 246.741 127.138 239.110 138.175 236.750 150.500 C 235.512 156.961 235.827 163.929 237.250 170.250 C 238.641 175.868 248.475 186.069 245 185.500 C 238.164 184.366 223.005 176.308 216.250 167.250 C 209.387 158.373 207.369 146.263 206.750 135.125 C 206.173 124.733 207.874 113.875 212.500 104.750 C 213.902 101.972 218.622 105.314 221.500 106 C 228.118 107.579 234.756 109.002 241.250 111.250 Z " transform="matrix(0.9450835585594177, -0.3268286883831024, 0.3151385486125946, 0.9112449884414673, -126.9, 74.95)"/>
            <path id="ID0.9844551202841103" fill="#AA3578" stroke="none" stroke-linecap="round" d="M 239.150 104.050 C 242.510 118.087 230.770 132.005 228.850 146.350 C 228.196 151.239 230.138 156.059 231.100 161 C 231.305 164.293 230.487 167.974 232.350 171.050 C 235.657 176.521 247.977 186.175 245 185.500 C 240.892 184.574 223.005 176.308 216.250 167.250 C 209.387 158.373 206.980 146.278 206.750 135.125 C 206.459 120.830 205.394 102.038 215.400 92.300 C 221.371 86.487 236.890 95.501 239.150 104.050 Z " transform="matrix(0.8159341812133789, -0.2821662724018097, 0.28663158416748047, 0.8288151025772095, -93.2, 77.75)"/>
            <path id="ID0.9844551202841103" fill="#E84067" stroke="none" stroke-linecap="round" d="M 234.400 104.650 C 235.655 103.610 237.047 105.914 238.850 106.750 C 240.634 107.593 244.995 105.896 244.250 109.200 C 241.775 122.176 233.521 133.602 230.950 146.700 C 229.240 155.412 229.991 164.813 231.750 173.350 C 232.781 178.360 241.043 187.387 239.350 186.700 C 237.524 185.961 225.895 177.249 223.550 169.950 C 220.325 159.928 223.312 149.023 224.700 138.750 C 225.336 130.791 227.257 122.960 229.600 115.450 C 230.777 111.677 231.657 106.965 234.400 104.650 Z " transform="matrix(0.8690423369407654, -0.30053213238716125, 0.2897825837135315, 0.83792644739151, -101.5, 78.25)"/>
          </g>
          <g id="ID0.3919230280444026">
            <path id="ID0.9844551202841103" fill="#000000" stroke="none" stroke-linecap="round" d="M 241.250 111.250 C 243.712 112.102 248.522 111.602 248.250 114.750 C 246.741 127.138 239.110 138.175 236.750 150.500 C 235.512 156.961 235.827 163.929 237.250 170.250 C 238.641 175.868 248.475 186.069 245 185.500 C 238.164 184.366 223.005 176.308 216.250 167.250 C 209.387 158.373 207.369 146.263 206.750 135.125 C 206.173 124.733 207.874 113.875 212.500 104.750 C 213.902 101.972 218.622 105.314 221.500 106 C 228.118 107.579 234.756 109.002 241.250 111.250 Z " transform="matrix(-0.7582807540893555, -0.4124597907066345, -0.2153734713792801, 0.8894262909889221, 439.5, 92.35)"/>
            <path id="ID0.9844551202841103" fill="#E84067" stroke="none" stroke-linecap="round" d="M 227.150 103.700 C 230.050 116.640 223.168 129.951 222.800 143.300 C 222.654 148.581 223.578 153.993 225.400 158.950 C 227.048 163.417 229.724 167.291 232.350 171.050 C 236.278 176.169 247.977 186.175 245 185.500 C 240.892 184.574 223.005 176.308 216.250 167.250 C 209.387 158.373 207.287 146.267 206.750 135.125 C 206.173 123.147 206.246 109.785 212.700 99.850 C 215.455 95.599 226.069 98.910 227.150 103.700 Z " transform="matrix(-0.6546587347984314, -0.356095552444458, -0.1958911120891571, 0.8089700937271118, 413, 92.25)"/>
            <path id="ID0.9844551202841103" fill="#E84067" stroke="none" stroke-linecap="round" d="M 227.950 102.950 C 231.709 103.756 235.507 104.867 238.850 106.750 C 241.789 108.414 247.476 109.449 247 112.500 C 244.407 124.964 233.865 134.813 230.950 146.700 C 228.837 155.323 229.991 164.813 231.750 173.350 C 232.781 178.360 242.032 187.694 239.350 186.700 C 234.888 185.049 221.677 175.704 216.250 167.250 C 210.225 157.862 206.555 146.278 206.750 135.125 C 206.952 123.588 211.101 111.790 217.350 102.150 C 219.382 99.223 224.501 102.212 227.950 102.950 Z " transform="matrix(-0.6972696781158447, -0.379273384809494, -0.1980445832014084, 0.8178632259368896, 419.6, 93.45)"/>
          </g>
        </g>
      </g>
      <g id="ID0.32537271501496434">
        <g id="ID0.5083589958958328">
          <path id="ID0.6469502300024033" fill="#000000" stroke="none" d="M 216.375 53.500 C 223.307 53.500 229.588 56.119 234.136 60.351 C 238.685 64.582 241.500 70.426 241.500 76.875 C 241.500 83.324 238.685 89.168 234.136 93.399 C 229.588 97.631 223.307 100.250 216.375 100.250 C 209.443 100.250 203.162 97.631 198.614 93.399 C 194.065 89.168 191.250 83.324 191.250 76.875 C 191.250 70.426 194.065 64.582 198.614 60.351 C 203.162 56.119 209.443 53.500 216.375 53.500 Z " transform="matrix(-1, 0, 0, 1, 456.7, -14.6)"/>
          <path id="ID0.6469502300024033" fill="#E1ACD7" stroke="none" d="M 216.375 53.500 C 223.307 53.500 229.588 56.119 234.136 60.351 C 238.685 64.582 241.500 70.426 241.500 76.875 C 241.500 83.324 238.685 89.168 234.136 93.399 C 229.588 97.631 223.307 100.250 216.375 100.250 C 209.443 100.250 203.162 97.631 198.614 93.399 C 194.065 89.168 191.250 83.324 191.250 76.875 C 191.250 70.426 194.065 64.582 198.614 60.351 C 203.162 56.119 209.443 53.500 216.375 53.500 Z " transform="matrix(-0.9353233575820923, 0, 0, 0.9353233575820923, 442.45, -9.7)"/>
          <path id="ID0.6469502300024033" fill="#FFFFFF" stroke="none" stroke-linecap="round" d="M 218.300 52.650 C 224.059 53.282 229.939 56.080 234.136 60.351 C 238.358 64.651 241.500 70.426 241.500 76.875 C 241.500 83.324 238.685 89.168 234.136 93.399 C 229.588 97.631 223.307 100.250 216.375 100.250 C 209.443 100.250 203.162 97.631 198.614 93.399 C 194.065 89.168 191.267 82.905 191.250 76.875 C 191.230 69.928 193.214 61.498 198.500 56.700 C 203.366 52.291 211.540 51.999 218.300 52.650 Z " transform="matrix(-0.8577114343643188, 0, 0, 0.8577114343643188, 423.7, -4.5)"/>
        </g>
        <g id="ID0.7993870074860752">
          <path id="ID0.16104177478700876" fill="#000000" stroke="none" d="M 220.750 60.250 C 225.233 60.250 229.296 61.791 232.237 64.280 C 235.179 66.769 237 70.206 237 74 C 237 77.794 235.179 81.231 232.237 83.720 C 229.296 86.209 225.233 87.750 220.750 87.750 C 216.267 87.750 212.204 86.209 209.263 83.720 C 206.321 81.231 204.500 77.794 204.500 74 C 204.500 70.206 206.321 66.769 209.263 64.280 C 212.204 61.791 216.267 60.250 220.750 60.250 Z " transform="matrix(-1.1090909242630005, 0, 0, 1.1090909242630005, 487.45, -26.15)"/>
          <g id="ID0.8155376999638975">
            <path id="ID0.3751268470659852" fill="#000000" stroke="none" d="M 278.875 69 C 281.599 69 284.068 69.924 285.856 71.418 C 287.643 72.911 288.750 74.974 288.750 77.250 C 288.750 79.526 287.643 81.589 285.856 83.082 C 284.068 84.576 281.599 85.500 278.875 85.500 C 276.151 85.500 273.682 84.576 271.894 83.082 C 270.107 81.589 269 79.526 269 77.250 C 269 74.974 270.107 72.911 271.894 71.418 C 273.682 69.924 276.151 69 278.875 69 Z " transform="matrix(-0.8787878751754761, 0, 0, 0.8787878751754761, 481.95, -21.2)"/>
            <path id="ID0.3751268470659852" fill="#FFFFFF" stroke="none" d="M 278.875 69 C 281.599 69 284.068 69.924 285.856 71.418 C 287.643 72.911 288.750 74.974 288.750 77.250 C 288.750 79.526 287.643 81.589 285.856 83.082 C 284.068 84.576 281.599 85.500 278.875 85.500 C 276.151 85.500 273.682 84.576 271.894 83.082 C 270.107 81.589 269 79.526 269 77.250 C 269 74.974 270.107 72.911 271.894 71.418 C 273.682 69.924 276.151 69 278.875 69 Z " transform="matrix(-0.7988981008529663, 0, 0, 0.7988981008529663, 459.55, -15.1)"/>
          </g>
        </g>
      </g>
      <g id="ID0.9710492715239525">
        <g id="ID0.6901992321945727">
          <g id="ID0.0002765236422419548">
            <path id="ID0.7267775451764464" fill="#000000" stroke="none" d="M 215.500 87.500 C 222.498 86.955 230.357 86.884 235.750 91 C 241.984 95.557 246.691 103.457 247 111 C 247.257 117.323 243.470 123.358 237.768 127.613 C 232.066 131.867 224.191 134.500 215.500 134.500 C 206.809 134.500 198.934 131.867 193.232 127.613 C 187.530 123.358 184 117.483 184 111 C 184 104.517 187.530 98.642 193.232 94.387 C 198.934 90.133 207.761 88.104 215.500 87.500 Z " transform="matrix(-0.9166765213012695, 0.07953634858131409, 0.07953634858131409, 0.9166765213012695, 434.45, -22.75)"/>
            <path id="ID0.7888132319785655" fill="#FFA06B" stroke="none" d="M 218.750 94.250 C 227.303 94.250 235.053 96.575 240.664 100.331 C 246.276 104.088 249.750 109.275 249.750 115 C 249.750 120.725 246.276 125.912 240.664 129.669 C 235.053 133.425 227.303 135.750 218.750 135.750 C 210.197 135.750 202.447 133.425 196.836 129.669 C 191.224 125.912 187.750 120.725 187.750 115 C 187.750 109.275 191.224 104.088 196.836 100.331 C 202.447 96.575 210.197 94.250 218.750 94.250 Z " transform="matrix(-0.9166765213012695, 0.07953634858131409, 0.08432769775390625, 0.9718980193138123, 434, -32.7)"/>
            <path id="ID0.7888132319785655" fill="#FFC792" stroke="none" d="M 218.750 94.250 C 227.303 94.250 234.963 95.347 240.664 100.331 C 246.291 105.252 251.210 113.530 249.550 120.650 C 248.090 126.745 239.330 128.214 233.600 130.250 C 229.543 131.684 225.146 131.512 220.700 131.200 C 213.765 130.708 206.299 130.806 200.150 127.500 C 195.501 125 191.307 119.967 190.800 114.700 C 190.034 109.530 192.528 103.415 196.836 100.331 C 202.980 95.929 210.197 94.250 218.750 94.250 Z " transform="matrix(-0.8353584408760071, 0.072480708360672, 0.08078210055828094, 0.9310341477394104, 413.15, -27.3)"/>
          </g>
          <g id="ID0.9049493917264044">
            <path id="ID0.5067522679455578" fill="#000000" stroke="none" stroke-linecap="round" d="M 261.500 80.500 C 272.260 80.500 282.010 83.049 289.070 87.168 C 296.130 91.286 300.500 96.973 300.500 103.250 C 300.500 109.527 296.130 115.214 289.070 119.332 C 282.010 123.451 272.260 126 261.500 126 C 250.740 126 240.990 123.451 233.930 119.332 C 226.870 115.214 222.500 109.527 222.500 103.250 C 222.500 96.973 226.870 91.286 233.930 87.168 C 240.990 83.049 250.740 80.500 261.500 80.500 Z " transform="matrix(1, 0, 0, 1.4285714626312256, -61, -48.75)"/>
            <path id="ID0.5114848599769175" fill="#FFA06B" stroke="none" stroke-linecap="round" d="M 261 93.750 C 270.932 93.750 278.898 96.536 286.449 100.967 C 291.520 103.957 297.116 108.620 297 114.250 C 296.836 122.266 291.788 130.346 285.500 135.250 C 278.854 140.671 269.813 142.947 261 143 C 251.992 143.054 242.407 141.311 235.551 135.783 C 228.854 130.382 223.513 121.296 223.500 112.500 C 223.513 107.023 230.555 103.524 235.551 100.967 C 243.391 96.957 251.068 93.750 261 93.750 Z " transform="matrix(1, 0, 0, 1, -60, -13.5)"/>
            <path id="ID0.38591806776821613" fill="#FFC792" stroke="none" stroke-linecap="round" d="M 266 82 C 276.277 82 285.589 85.362 292.333 90.792 C 299.076 96.223 303.314 104.055 303.250 112 C 303.194 118.987 297.937 125.844 292 129.200 C 284.259 133.834 274.398 135.032 265.500 134.050 C 255.942 132.995 246.688 128.824 238.500 123.800 C 234.056 121.245 228.539 117.178 228.750 112 C 229.073 104.064 232.924 96.223 239.667 90.792 C 246.411 85.362 255.723 82 266 82 Z " transform="matrix(1, 0, 0, 1.0208333730697632, -65.25, -15.8)"/>
          </g>
          <g id="ID0.0002765236422419548">
            <path id="ID0.7267775451764464" fill="#000000" stroke="none" d="M 215.500 87.500 C 222.498 86.955 230.357 86.884 235.750 91 C 241.984 95.557 246.691 103.457 247 111 C 247.257 117.323 243.470 123.358 237.768 127.613 C 232.066 131.867 224.191 134.500 215.500 134.500 C 206.809 134.500 198.934 131.867 193.232 127.613 C 187.530 123.358 184 117.483 184 111 C 184 104.517 187.530 98.642 193.232 94.387 C 198.934 90.133 207.761 88.104 215.500 87.500 Z " transform="matrix(1, 0, 0, 1, -58, -11)"/>
            <path id="ID0.7888132319785655" fill="#FFA06B" stroke="none" d="M 218.750 94.250 C 227.303 94.250 235.053 96.575 240.664 100.331 C 246.276 104.088 249.750 109.275 249.750 115 C 249.750 120.725 246.276 125.912 240.664 129.669 C 235.053 133.425 227.303 135.750 218.750 135.750 C 210.197 135.750 202.447 133.425 196.836 129.669 C 191.224 125.912 187.750 120.725 187.750 115 C 187.750 109.275 191.224 104.088 196.836 100.331 C 202.447 96.575 210.197 94.250 218.750 94.250 Z " transform="matrix(1, 0, 0, 1.0602409839630127, -58.5, -21.8)"/>
            <path id="ID0.7888132319785655" fill="#FFC792" stroke="none" d="M 218.750 94.250 C 227.303 94.250 234.963 95.347 240.664 100.331 C 246.291 105.252 251.210 113.530 249.550 120.650 C 248.090 126.745 239.330 128.214 233.600 130.250 C 229.543 131.684 225.146 131.512 220.700 131.200 C 213.765 130.708 206.299 130.806 200.150 127.500 C 195.501 125 191.307 119.967 190.800 114.700 C 190.034 109.530 192.528 103.415 196.836 100.331 C 202.980 95.929 210.197 94.250 218.750 94.250 Z " transform="matrix(0.9112903475761414, 0, 0, 1.015662670135498, -35.4, -18)"/>
          </g>
        </g>
        <g id="ID0.8052818556316197">
          <g id="ID0.9139704331755638">
            <path id="ID0.31713517382740974" fill="#000000" stroke="none" d="M 266.750 100.750 C 275.027 100.750 282.527 103.271 287.958 107.344 C 293.388 111.417 296.750 117.042 296.750 123.250 C 296.750 129.458 293.388 135.083 287.958 139.156 C 282.527 143.229 275.027 145.750 266.750 145.750 C 258.473 145.750 250.973 143.229 245.542 139.156 C 240.112 135.083 236.750 129.458 236.750 123.250 C 236.750 117.042 240.112 111.417 245.542 107.344 C 250.973 103.271 258.473 100.750 266.750 100.750 Z " transform="matrix(1, 0, 0, 1, -59.25, -1.35)"/>
            <path id="ID0.6248800582252443" fill="#FFA06B" stroke="none" d="M 269.875 109.250 C 277.634 109.250 284.666 111.505 289.757 115.148 C 294.848 118.791 298 123.823 298 129.375 C 298 134.927 294.848 139.959 289.757 143.602 C 284.666 147.245 277.634 149.500 269.875 149.500 C 262.116 149.500 255.084 147.245 249.993 143.602 C 244.902 139.959 241.750 134.927 241.750 129.375 C 241.750 123.823 244.902 118.791 249.993 115.148 C 255.084 111.505 262.116 109.250 269.875 109.250 Z " transform="matrix(1, 0, 0, 1, -62, -8.1)"/>
            <path id="ID0.41223712265491486" fill="#FFC792" stroke="none" stroke-linecap="round" d="M 270.500 104.550 C 277.579 104.663 284.031 109.817 289.404 114.282 C 293.407 117.605 297.500 122.418 297.500 127.625 C 297.500 132.832 294.405 137.551 289.404 140.968 C 284.403 144.385 277.497 146.500 269.875 146.500 C 262.253 146.500 255.347 144.385 250.346 140.968 C 245.345 137.551 243.142 132.743 242.250 127.625 C 241.427 122.888 241.432 116.616 245 113.600 C 252.073 107.924 261.670 104.410 270.500 104.550 Z " transform="matrix(1, 0, 0, 0.940397322177887, -62, -1.1)"/>
          </g>
          <path id="ID0.19999559735879302" fill="#000000" stroke="none" stroke-linecap="round" d="M 271.750 108.750 C 276.292 109.620 280.085 112.641 283.500 115.500 C 286.776 118.271 291.302 121.290 291.500 125.375 C 291.681 129.168 288.909 132.277 284.723 134.653 C 280.536 137.029 273.976 138.635 268.375 138.500 C 263.377 138.381 258.273 136.851 254.500 133.750 C 243.513 124.717 225.118 108.431 224.500 102.350 C 224.217 97.618 243.134 108.565 252.500 109.750 C 258.867 110.552 265.433 107.562 271.750 108.750 Z " transform="matrix(1, 0, 0, 1, -57.5, -7.35)"/>
          <path id="ID0.026291477493941784" fill="#FF9999" stroke="none" stroke-linecap="round" d="M 268 129.250 C 271.173 129.250 274.048 129.726 276.130 130.496 C 278.211 131.265 279.500 132.327 279.500 133.500 C 279.500 134.673 278.211 135.735 276.130 136.504 C 274.048 137.274 271.173 137.750 268 137.750 C 264.827 137.750 261.952 137.274 259.870 136.504 C 257.789 135.735 256.500 134.673 256.500 133.500 C 256.500 132.327 257.789 131.265 259.870 130.496 C 261.952 129.726 264.827 129.250 268 129.250 Z " transform="matrix(1, 0, 0, 1, -55.25, -8.1)"/>
        </g>
        <g id="ID0.9664440304040909">
          <path id="ID0.5274027376435697" fill="#000000" stroke="none" d="M 280.875 80.750 C 290.773 80.750 299.741 84.294 306.236 90.019 C 312.730 95.744 316.750 103.650 316.750 112.375 C 316.750 121.100 312.730 129.006 306.236 134.731 C 299.741 140.456 290.773 144 280.875 144 C 270.977 144 262.009 140.456 255.514 134.731 C 249.020 129.006 245 121.100 245 112.375 C 245 103.650 249.020 95.744 255.514 90.019 C 262.009 84.294 270.977 80.750 280.875 80.750 Z " transform="matrix(1, 0, 0, 1, -58.75, -8.75)"/>
          <path id="ID0.8625378757715225" fill="#FFA06B" stroke="none" stroke-linecap="round" d="M 271 84.750 C 279.399 85.679 288.749 88.056 294.859 93.396 C 300.968 98.736 304.750 106.111 304.750 114.250 C 304.750 122.389 300.968 129.764 294.859 135.104 C 288.749 140.444 279.437 144.224 271 143.750 C 262.305 143.259 254.876 137.451 247.700 132.750 C 240.952 128.321 234.708 122.836 229.350 116.650 C 226.163 112.852 219.491 107.511 222.450 103.250 C 228.553 94.661 240.624 91.908 250.350 88.150 C 256.850 85.638 264.067 83.984 271 84.750 Z " transform="matrix(1.048888921737671, 0, 0, 1.0254237651824951, -63.6, -13.55)"/>
          <path id="ID0.8625378757715225" fill="#FFC792" stroke="none" stroke-linecap="round" d="M 262.450 85 C 273.659 84.252 285.897 87.120 294.859 93.396 C 301.153 97.807 304.750 106.111 304.750 114.250 C 304.750 122.389 300.968 129.764 294.859 135.104 C 288.749 140.444 279.437 144.224 271 143.750 C 262.305 143.259 254.876 137.451 247.700 132.750 C 240.952 128.321 235.502 121.962 229.350 116.650 C 225.796 113.580 219.559 112.574 218.500 108.100 C 217.609 104.316 221.190 99.939 224.650 98.150 C 236.659 91.943 249.241 85.906 262.450 85 Z " transform="matrix(1.0115575790405273, 0, 0, 0.9889276027679443, -52.5, -10.9)"/>
        </g>
        <g id="ID0.7525820680893958">
          <path id="ID0.5921955462545156" fill="#000000" stroke="none" d="M 306.375 112.500 C 310.065 112.500 313.409 113.144 315.830 114.185 C 318.251 115.226 319.750 116.664 319.750 118.250 C 319.750 119.836 318.251 121.274 315.830 122.315 C 313.409 123.356 310.065 124 306.375 124 C 302.685 124 299.341 123.356 296.920 122.315 C 294.499 121.274 293 119.836 293 118.250 C 293 116.664 294.499 115.226 296.920 114.185 C 299.341 113.144 302.685 112.500 306.375 112.500 Z " transform="matrix(0.9464058876037598, 0.32297977805137634, -0.32297977805137634, 0.9464058876037598, -2.9, -90.6)"/>
          <path id="ID0.15879153180867434" fill="#474D67" stroke="none" d="M 313.875 114.500 C 315.151 114.500 316.307 114.808 317.145 115.306 C 317.982 115.804 318.500 116.491 318.500 117.250 C 318.500 118.009 317.982 118.696 317.145 119.194 C 316.307 119.692 315.151 120 313.875 120 C 312.599 120 311.443 119.692 310.605 119.194 C 309.768 118.696 309.250 118.009 309.250 117.250 C 309.250 116.491 309.768 115.804 310.605 115.306 C 311.443 114.808 312.599 114.500 313.875 114.500 Z " transform="matrix(0.9464058876037598, 0.32297977805137634, -0.32297977805137634, 0.9464058876037598, -3.7, -90.6)"/>
        </g>
      </g>
      <g id="ID0.32537271501496434">
        <g id="ID0.5083589958958328">
          <path id="ID0.6469502300024033" fill="#000000" stroke="none" d="M 216.375 53.500 C 223.307 53.500 229.588 56.119 234.136 60.351 C 238.685 64.582 241.500 70.426 241.500 76.875 C 241.500 83.324 238.685 89.168 234.136 93.399 C 229.588 97.631 223.307 100.250 216.375 100.250 C 209.443 100.250 203.162 97.631 198.614 93.399 C 194.065 89.168 191.250 83.324 191.250 76.875 C 191.250 70.426 194.065 64.582 198.614 60.351 C 203.162 56.119 209.443 53.500 216.375 53.500 Z " transform="matrix(1, 0, 0, 1, -56, -12)"/>
          <path id="ID0.6469502300024033" fill="#E1ACD7" stroke="none" d="M 216.375 53.500 C 223.307 53.500 229.588 56.119 234.136 60.351 C 238.685 64.582 241.500 70.426 241.500 76.875 C 241.500 83.324 238.685 89.168 234.136 93.399 C 229.588 97.631 223.307 100.250 216.375 100.250 C 209.443 100.250 203.162 97.631 198.614 93.399 C 194.065 89.168 191.250 83.324 191.250 76.875 C 191.250 70.426 194.065 64.582 198.614 60.351 C 203.162 56.119 209.443 53.500 216.375 53.500 Z " transform="matrix(0.9353233575820923, 0, 0, 0.9353233575820923, -41.75, -7.1)"/>
          <path id="ID0.6469502300024033" fill="#FFFFFF" stroke="none" stroke-linecap="round" d="M 218.300 52.650 C 224.059 53.282 229.939 56.080 234.136 60.351 C 238.358 64.651 241.500 70.426 241.500 76.875 C 241.500 83.324 238.685 89.168 234.136 93.399 C 229.588 97.631 223.307 100.250 216.375 100.250 C 209.443 100.250 203.162 97.631 198.614 93.399 C 194.065 89.168 191.267 82.905 191.250 76.875 C 191.230 69.928 193.214 61.498 198.500 56.700 C 203.366 52.291 211.540 51.999 218.300 52.650 Z " transform="matrix(0.8577114343643188, 0, 0, 0.8577114343643188, -23, -1.9)"/>
        </g>
        <g id="ID0.7993870074860752">
          <path id="ID0.16104177478700876" fill="#000000" stroke="none" d="M 220.750 60.250 C 225.233 60.250 229.296 61.791 232.237 64.280 C 235.179 66.769 237 70.206 237 74 C 237 77.794 235.179 81.231 232.237 83.720 C 229.296 86.209 225.233 87.750 220.750 87.750 C 216.267 87.750 212.204 86.209 209.263 83.720 C 206.321 81.231 204.500 77.794 204.500 74 C 204.500 70.206 206.321 66.769 209.263 64.280 C 212.204 61.791 216.267 60.250 220.750 60.250 Z " transform="matrix(1.1090909242630005, 0, 0, 1.1090909242630005, -86.75, -23.55)"/>
          <g id="ID0.8155376999638975">
            <path id="ID0.3751268470659852" fill="#000000" stroke="none" d="M 278.875 69 C 281.599 69 284.068 69.924 285.856 71.418 C 287.643 72.911 288.750 74.974 288.750 77.250 C 288.750 79.526 287.643 81.589 285.856 83.082 C 284.068 84.576 281.599 85.500 278.875 85.500 C 276.151 85.500 273.682 84.576 271.894 83.082 C 270.107 81.589 269 79.526 269 77.250 C 269 74.974 270.107 72.911 271.894 71.418 C 273.682 69.924 276.151 69 278.875 69 Z " transform="matrix(0.8787878751754761, 0, 0, 0.8787878751754761, -81.25, -18.6)"/>
            <path id="ID0.3751268470659852" fill="#FFFFFF" stroke="none" d="M 278.875 69 C 281.599 69 284.068 69.924 285.856 71.418 C 287.643 72.911 288.750 74.974 288.750 77.250 C 288.750 79.526 287.643 81.589 285.856 83.082 C 284.068 84.576 281.599 85.500 278.875 85.500 C 276.151 85.500 273.682 84.576 271.894 83.082 C 270.107 81.589 269 79.526 269 77.250 C 269 74.974 270.107 72.911 271.894 71.418 C 273.682 69.924 276.151 69 278.875 69 Z " transform="matrix(0.7988981008529663, 0, 0, 0.7988981008529663, -58.85, -12.5)"/>
          </g>
        </g>
      </g>
    </g>
  </g>
</svg>
